<svg xmlns="http://www.w3.org/2000/svg" version="1.1" xmlns:xlink="http://www.w3.org/1999/xlink" xmlns:svgjs="http://svgjs.dev/svgjs" width="362" height="362"><svg width="362" height="362" viewBox="0 0 362 362" fill="none" xmlns="http://www.w3.org/2000/svg">
<circle cx="181" cy="181" r="181" fill="#543BCE"></circle>
<path d="M97 199.056H124.833C129.755 199.056 134.474 201.011 137.954 204.49C141.434 207.97 143.389 212.69 143.389 217.611V245.444C143.389 250.366 141.434 255.085 137.954 258.565C134.474 262.045 129.755 264 124.833 264H115.556C110.634 264 105.915 262.045 102.435 258.565C98.955 255.085 97 250.366 97 245.444V180.5C97 158.354 105.797 137.116 121.457 121.457C137.116 105.797 158.354 97 180.5 97C202.646 97 223.884 105.797 239.543 121.457C255.203 137.116 264 158.354 264 180.5V245.444C264 250.366 262.045 255.085 258.565 258.565C255.085 262.045 250.366 264 245.444 264H236.167C231.245 264 226.526 262.045 223.046 258.565C219.566 255.085 217.611 250.366 217.611 245.444V217.611C217.611 212.69 219.566 207.97 223.046 204.49C226.526 201.011 231.245 199.056 236.167 199.056H264" stroke="white" stroke-width="12" stroke-linecap="round" stroke-linejoin="round"></path>
</svg><style>@media (prefers-color-scheme: light) { :root { filter: none; } }
@media (prefers-color-scheme: dark) { :root { filter: none; } }
</style></svg>